<?xml version="1.0" encoding="iso-8859-1"?>
<!-- Uploaded to: SVG Repo, www.svgrepo.com, Generator: SVG Repo Mixer Tools -->
<svg fill="#000000" height="800px" width="800px" version="1.1" id="Layer_1" xmlns="http://www.w3.org/2000/svg" xmlns:xlink="http://www.w3.org/1999/xlink" 
	 viewBox="0 0 481.882 481.882" xml:space="preserve">
<g>
	<g>
		<path d="M402.293,212.082L269.761,79.55c-2.824-2.824-7.824-2.824-10.647,0L7.805,330.862C2.772,335.892,0,342.582,0,349.701
			c0,7.118,2.772,13.808,7.805,18.838l105.5,105.504c5.195,5.195,12.015,7.791,18.838,7.791c6.824,0,13.644-2.595,18.839-7.791
			L402.293,222.73C405.235,219.789,405.235,215.023,402.293,212.082z M98.474,409.95l-26.581-26.581l10.647-10.647l26.58,26.58
			L98.474,409.95z"/>
	</g>
</g>
<g>
	<g>
		<path d="M479.676,91.226L390.618,2.167c-2.824-2.823-7.824-2.823-10.647,0l-83.147,83.151l99.704,99.704l83.149-83.149
			C482.617,98.932,482.617,94.167,479.676,91.226z M338.834,93.851l48.761-48.761l10.647,10.647l-48.761,48.76L338.834,93.851z
			 M387.959,142.976l-10.647-10.647l48.76-48.761l10.647,10.647L387.959,142.976z"/>
	</g>
</g>
</svg>